<svg xmlns="http://www.w3.org/2000/svg" viewBox="0 0 467.4 100.4"><title>logo</title><path d="M38,56.7a2.5,2.5,0,0,1-2.4,1.6H24.8a2.6,2.6,0,0,1-2.4-1.6L1.1,3.7a1.07,1.07,0,0,1,.6-1.5c.1,0,.3-.1.4-.1H14.3a2.47,2.47,0,0,1,2.3,1.6l13,34.8a.62.62,0,0,0,.6.4c.2,0,.3-.2.4-.4L43.8,3.7a2.47,2.47,0,0,1,2.3-1.6H58.3a1.28,1.28,0,0,1,1.2,1.1h0c0,.2,0,.3-.1.4Z" style="fill:#b17649;stroke:#000;stroke-miterlimit:10;stroke-width:2px"/><path d="M64.4,3.8a1.77,1.77,0,0,1,1.8-1.7h11a1.75,1.75,0,0,1,1.7,1.7V56.5a1.75,1.75,0,0,1-1.7,1.7h-11a1.84,1.84,0,0,1-1.8-1.7Z" style="fill:#b17649;stroke:#000;stroke-miterlimit:10;stroke-width:2px"/><path d="M87.5,3.8a1.75,1.75,0,0,1,1.7-1.7h25.7c14.4,0,21,9.4,21,20.5,0,7.4-3.1,14.3-9.8,18a1.2,1.2,0,0,0-.5,1.7h0c0,.1.1.1.1.2L136,56.9a1,1,0,0,1-.2,1.3c-.2.1-.3.2-.5.2H121.6a3.45,3.45,0,0,1-2.7-1.4L110,44.4a3.26,3.26,0,0,0-2.3-1.2h-4.5a1.37,1.37,0,0,0-1.4,1.4h0V56.4a1.75,1.75,0,0,1-1.7,1.7H89.2a1.75,1.75,0,0,1-1.7-1.7Zm26.6,11.4H103.2a1.37,1.37,0,0,0-1.4,1.4h0V28.7a1.43,1.43,0,0,0,1.4,1.4h10.9c5.8,0,7.9-3.5,7.9-7.4C122,18.5,119.9,15.2,114.1,15.2Z" style="fill:#b17649;stroke:#000;stroke-miterlimit:10;stroke-width:2px"/><path d="M140,30.2c0-16,13.6-29.1,29.8-29.1,16.4,0,29.8,13.2,29.8,29.2s-13.4,29.2-29.8,29.2C153.6,59.3,140,46.3,140,30.2Zm14.5,0a15.3,15.3,0,1,0,15.3-15.3h0a15.36,15.36,0,0,0-15.3,15.3Z" style="fill:#b17649;stroke:#000;stroke-miterlimit:10;stroke-width:2px"/><path d="M233.4,58.3a1.75,1.75,0,0,1-1.7-1.7V3.8a1.75,1.75,0,0,1,1.7-1.7h10.9A1.69,1.69,0,0,1,246,3.8V43a1.37,1.37,0,0,0,1.4,1.4h23.8a1.75,1.75,0,0,1,1.7,1.7V56.5a1.75,1.75,0,0,1-1.7,1.7l-37.8.1Z"/><path d="M279.2,12.7l-1,.9V3.8A1.77,1.77,0,0,1,280,2.1h10.7l-.9,1Z" style="fill:#b17649"/><path d="M292.7,3.9V56.6a1.69,1.69,0,0,1-1.7,1.7H280a1.75,1.75,0,0,1-1.7-1.7V15.8l1-.9L291.6,3.7l.8-.7A1.9,1.9,0,0,1,292.7,3.9Z" style="fill:#b17649"/><path d="M293.1,2.2l-.7.7-.8.7c0,.1.1.2.1.3V56.5a.68.68,0,0,1-.7.7H280a.68.68,0,0,1-.7-.7V14.7l-1,.9-1,.9v40a2.69,2.69,0,0,0,2.7,2.7h11a2.69,2.69,0,0,0,2.7-2.7V3.9A4.92,4.92,0,0,0,293.1,2.2ZM279.2,12.7V3.9a.77.77,0,0,1,.8-.7h9.7l1.9-1.9a5.64,5.64,0,0,0-.7-.1H280a2.83,2.83,0,0,0-2.8,2.6V14.5l1-.9Z"/><path d="M328.6,37.5a1.75,1.75,0,0,1-1.7-1.7V27.3a1.69,1.69,0,0,1,1.7-1.7h23.6a1.75,1.75,0,0,1,1.7,1.7V56.6a1.75,1.75,0,0,1-1.7,1.7h-7.8a1.75,1.75,0,0,1-1.7-1.7V54.5a.47.47,0,0,0-.5-.5h0a.76.76,0,0,0-.4.2c-3,3.4-8.1,5.2-13.3,5.2-16.3,0-29.8-13.1-29.8-29.2S312.1,1,328.4,1a30,30,0,0,1,22.7,10.4,1.61,1.61,0,0,1-.2,2.3h0l-8.9,6a2,2,0,0,1-2.7-.3A14.86,14.86,0,0,0,328.4,15a15.31,15.31,0,1,0-.8,30.6h.8A14.54,14.54,0,0,0,340,39.8a2.84,2.84,0,0,0,.4-1.2v-.2a.68.68,0,0,0-.7-.7Z"/><path d="M398.4,3.8a1.77,1.77,0,0,1,1.8-1.7h10.9a1.69,1.69,0,0,1,1.7,1.7V56.5a1.75,1.75,0,0,1-1.7,1.7H400.2a1.84,1.84,0,0,1-1.8-1.7V38.8a1.37,1.37,0,0,0-1.4-1.4H377a1.37,1.37,0,0,0-1.4,1.4V56.5a1.75,1.75,0,0,1-1.7,1.7H363a1.75,1.75,0,0,1-1.7-1.7V3.8A1.75,1.75,0,0,1,363,2.1h10.9a1.69,1.69,0,0,1,1.7,1.7V22.4a1.39,1.39,0,0,0,1.5,1.4h20a1.37,1.37,0,0,0,1.4-1.4Z"/><path d="M419.7,16.1a1.69,1.69,0,0,1-1.7-1.7V3.8a1.75,1.75,0,0,1,1.7-1.7h45.9a1.69,1.69,0,0,1,1.7,1.7V14.3a1.75,1.75,0,0,1-1.7,1.7H451.3a1.37,1.37,0,0,0-1.4,1.4v39a1.75,1.75,0,0,1-1.7,1.7H437.3a1.75,1.75,0,0,1-1.7-1.7v-39a1.37,1.37,0,0,0-1.4-1.4Z"/><circle cx="285.4" cy="49.9" r="2.4"/><path d="M278.2,27.1c-.1,0-.2-.1-.3-.2l-4.7-5.2a.48.48,0,0,1,0-.7h0L294.5,1.6a.37.37,0,0,1,.3-.1.76.76,0,0,1,.4.2l4.7,5.2c.1.1.1.2.1.4s-.1.2-.2.3L278.5,27a.37.37,0,0,1-.3.1Z"/><path d="M294.7,2l4.7,5.2L278.1,26.6l-4.7-5.2L294.7,2Zm0-1a1.08,1.08,0,0,0-.7.3L272.7,20.7a1,1,0,0,0,0,1.4l4.7,5.2a1,1,0,0,0,1.4,0L300.1,8a1.07,1.07,0,0,0,.1-1.4l-4.7-5.2A1.23,1.23,0,0,0,294.7,1Z"/><path d="M63.4,100.2v-19h2.1V98.3H71v1.9Z"/><path d="M81.2,81.2v19H79.1v-19Z"/><path d="M94,80.9a4.22,4.22,0,0,1,3.3,1.3,5.34,5.34,0,0,1,1,3.5v1.6h-2V85.5a4.55,4.55,0,0,0-.5-2,2.35,2.35,0,0,0-3.3,0h0a2.88,2.88,0,0,0-.5,2V95.6a3.51,3.51,0,0,0,.5,2,2.35,2.35,0,0,0,3.3,0h.1a2.88,2.88,0,0,0,.5-2V91.8h-2V90h4v5.6a5.51,5.51,0,0,1-1,3.5,4.78,4.78,0,0,1-6.5,0,5.34,5.34,0,0,1-1-3.5V85.7a6.93,6.93,0,0,1,.3-2,3.61,3.61,0,0,1,.8-1.5,4.12,4.12,0,0,1,1.3-1A4.67,4.67,0,0,1,94,80.9Z"/><path d="M108.8,91.6v8.6h-2.1v-19h2.1v8.6h4.7V81.2h2.1v19h-2.1V91.6Z"/><path d="M127.1,100.2V83h-3.5V81.1h9.2V83h-3.5v17.1l-2.2.1Z"/><path d="M142.8,81.2v19h-2.1v-19Z"/><path d="M153.3,100.2h-1.9v-19h2.7L158.5,95V81.2h1.9v19h-2.2l-4.9-15.4Z"/><path d="M173.1,80.9a4.22,4.22,0,0,1,3.3,1.3,6.06,6.06,0,0,1,1.1,3.5v1.6h-2V85.5a3.51,3.51,0,0,0-.5-2,2.35,2.35,0,0,0-3.3,0h-.1a2.88,2.88,0,0,0-.5,2V95.6a3.51,3.51,0,0,0,.5,2,2.35,2.35,0,0,0,3.3,0h0a2.88,2.88,0,0,0,.5-2V91.8h-2V90h4v5.6a5.06,5.06,0,0,1-1.1,3.5,4.78,4.78,0,0,1-6.5,0,6.06,6.06,0,0,1-1.1-3.5V85.7a6.45,6.45,0,0,1,.3-2,3.61,3.61,0,0,1,.8-1.5,4.12,4.12,0,0,1,1.3-1A7.47,7.47,0,0,1,173.1,80.9Z"/><path d="M187.7,97.5v2.6h-2V97.5Z"/><path d="M214.1,100.2h-2L208.9,85v15.2H207v-19h3l3.1,15.2,3-15.2h3v19h-2V84.8Z"/><path d="M227.6,85.7a4.91,4.91,0,0,1,1.1-3.5,4.84,4.84,0,0,1,6.6,0,4.91,4.91,0,0,1,1.1,3.5v9.9a4.91,4.91,0,0,1-1.1,3.5,4.1,4.1,0,0,1-3.3,1.3,4.22,4.22,0,0,1-3.3-1.3,5.42,5.42,0,0,1-1.1-3.5Zm2.1,10a3.61,3.61,0,0,0,.6,2,2.48,2.48,0,0,0,3.4,0h0a2.88,2.88,0,0,0,.5-2V85.6a3.51,3.51,0,0,0-.5-2,2.48,2.48,0,0,0-3.4,0h0a3.61,3.61,0,0,0-.6,2Z"/><path d="M249.1,81.2a4.2,4.2,0,0,1,3.2,1.1,4.55,4.55,0,0,1,1,3.2v.9a5.34,5.34,0,0,1-.5,2.5,2.69,2.69,0,0,1-1.8,1.3,3.23,3.23,0,0,1,2,1.4,6,6,0,0,1,.6,2.7v1.6a4.43,4.43,0,0,1-1.1,3.3,4.51,4.51,0,0,1-3.3,1.2h-4.4v-19h4.3Zm-.5,8.1a2.51,2.51,0,0,0,1.9-.5,2.42,2.42,0,0,0,.6-2V85.6a2.62,2.62,0,0,0-.5-1.9,1.75,1.75,0,0,0-1.7-.6h-2.1v6.2Zm.6,9c1.5,0,2.3-.9,2.3-2.6V94a2.86,2.86,0,0,0-.6-2.2,2.52,2.52,0,0,0-2-.6H247v7.1Z"/><path d="M268.7,89.6v1.9H264v6.8h5.7v1.9H262v-19h7.9v1.9h-5.7v6.5Z"/><path d="M278.2,100.2v-19h2.2V98.3h5.5v1.9Z"/><path d="M295.9,97.5v2.6h-2V97.5Z"/><path d="M319.7,81.2a4.22,4.22,0,0,1,3.3,1.3,5.34,5.34,0,0,1,1,3.5v9.6a5.34,5.34,0,0,1-1,3.5,4.1,4.1,0,0,1-3.3,1.3h-4.5V81.2Zm0,17.1a2.19,2.19,0,0,0,1.7-.7,3.61,3.61,0,0,0,.6-2V85.8a3,3,0,0,0-.6-2,1.9,1.9,0,0,0-1.7-.7h-2.3V98.3Z"/><path d="M339.3,89.6v1.9h-4.7v6.8h5.8v1.9h-7.9v-19h7.9v1.9h-5.7v6.5Z"/><path d="M352.8,80.9a3.89,3.89,0,0,1,3.2,1.3,5.34,5.34,0,0,1,1,3.5v.5h-2v-.6a3.51,3.51,0,0,0-.5-2,2.24,2.24,0,0,0-3.2-.1h0l-.1.1a3.85,3.85,0,0,0,0,3.8,7.89,7.89,0,0,0,1.2,1.5c.5.4,1,.9,1.5,1.3a6.73,6.73,0,0,1,1.5,1.4,6.57,6.57,0,0,1,1.2,1.7,5.93,5.93,0,0,1,.5,2.3,5.06,5.06,0,0,1-1.1,3.5,4,4,0,0,1-3.3,1.3,3.89,3.89,0,0,1-3.2-1.3,5.34,5.34,0,0,1-1-3.5V94.5h2v1.2a4.55,4.55,0,0,0,.5,2,2.35,2.35,0,0,0,3.3,0h0a3.85,3.85,0,0,0,0-3.8,5.26,5.26,0,0,0-1.2-1.4c-.5-.4-1-.9-1.5-1.3a10,10,0,0,1-1.5-1.4,6.57,6.57,0,0,1-1.2-1.7,5.93,5.93,0,0,1-.5-2.3,5.51,5.51,0,0,1,1-3.5A4.19,4.19,0,0,1,352.8,80.9Z"/><path d="M367.5,81.2v19h-2.1v-19Z"/><path d="M380.2,80.9a4.22,4.22,0,0,1,3.3,1.3,5.34,5.34,0,0,1,1,3.5v1.6h-2V85.5a4.55,4.55,0,0,0-.5-2,2.35,2.35,0,0,0-3.3,0h0a2.88,2.88,0,0,0-.5,2V95.6a4.55,4.55,0,0,0,.5,2,2.35,2.35,0,0,0,3.3,0h0a2.88,2.88,0,0,0,.5-2V91.8h-2V90h4v5.6a5.51,5.51,0,0,1-1,3.5,4.78,4.78,0,0,1-6.5,0,5.34,5.34,0,0,1-1-3.5V85.7a6.93,6.93,0,0,1,.3-2,3.61,3.61,0,0,1,.8-1.5,4.12,4.12,0,0,1,1.3-1A5.23,5.23,0,0,1,380.2,80.9Z"/><path d="M394.9,100.2H393v-19h2.7L400.1,95V81.2H402v19h-2.2l-4.9-15.4Z"/><path d="M412.7,97.5v2.6h-2V97.5Z"/></svg>